<?xml version="1.0" standalone="no"?>
<!DOCTYPE svg PUBLIC "-//W3C//DTD SVG 20010904//EN"
 "http://www.w3.org/TR/2001/REC-SVG-20010904/DTD/svg10.dtd">
<svg version="1.0" xmlns="http://www.w3.org/2000/svg"
 width="700.000000pt" height="700.000000pt" viewBox="0 0 700.000000 700.000000"
 preserveAspectRatio="xMidYMid meet">
<metadata>
Created by potrace 1.11, written by Peter Selinger 2001-2013
</metadata>
<g transform="translate(0.000000,700.000000) scale(0.100000,-0.100000)"
fill="#000000" stroke="none">
<path d="M2903 4370 c-374 -373 -692 -694 -707 -712 -117 -139 -118 -354 -4
-492 l25 -29 685 685 686 686 304 -307 c168 -168 320 -328 338 -354 130 -195
167 -447 98 -667 -143 -454 -658 -675 -1081 -464 -100 50 -156 96 -323 263
-83 83 -154 151 -158 151 -4 0 -67 -60 -141 -134 l-133 -133 160 -159 c198
-197 177 -177 251 -232 200 -147 432 -222 687 -222 430 0 815 230 1024 611 57
105 106 246 122 357 3 20 7 43 10 51 10 31 4 260 -10 336 -31 173 -103 346
-199 480 -44 61 -931 965 -948 965 -3 0 -312 -306 -686 -680z"/>
<path d="M3444 3817 c-72 -73 -147 -154 -167 -180 -111 -146 -94 -368 39 -499
82 -81 175 -117 291 -112 142 6 266 89 329 221 30 62 36 84 36 147 2 86 -15
154 -53 215 -30 50 -316 341 -333 340 -6 0 -70 -60 -142 -132z"/>
</g>
</svg>
