<?xml version="1.0" encoding="UTF-8"?>
<svg width="360px" height="192px" viewBox="0 0 360 192" version="1.1" xmlns="http://www.w3.org/2000/svg" xmlns:xlink="http://www.w3.org/1999/xlink">
    <!-- Generator: Sketch 41 (35326) - http://www.bohemiancoding.com/sketch -->
    <title>img/droppay_logo_full</title>
    <desc>Created with Sketch.</desc>
    <defs></defs>
    <g id="exports" stroke="none" stroke-width="1" fill="none" fill-rule="evenodd">
        <g id="img/droppay_logo_full" fill="#FFFFFF">
            <path d="M69.6317558,127.929087 C63.8424558,127.929046 59.1492715,123.235913 59.1492715,117.446647 L59.1492715,96.4455701 L59.1492715,64.9620536 L90.632788,64.9620536 C108.020654,64.9620536 122.116304,79.0577041 122.116304,96.4455701 C122.116304,113.833436 108.020654,127.929087 90.632788,127.929087 L80.1382825,127.929087 L80.1382825,117.446602 C80.1382825,117.446602 87.2985903,117.446602 90.6207668,117.446602 C102.212677,117.446602 111.609778,108.049502 111.609778,96.4575913 C111.609778,84.8656806 102.212677,75.4685803 90.6207668,75.4685803 L69.6317558,75.4685803 L69.6317558,96.4575913 L69.6317558,117.446602 L69.6317558,127.929087 L69.6317558,127.929087 Z M90.632788,106.964118 C96.4287433,106.964118 101.127293,102.265568 101.127293,96.4696125 C101.127293,90.6736572 96.4287433,85.975107 90.632788,85.975107 L80.1382825,85.975107 L80.1382825,96.4696125 C80.1382825,102.265568 84.8368326,106.964118 90.632788,106.964118 L90.632788,106.964118 Z" id="DropPay-Mark" transform="translate(90.632788, 96.445570) rotate(45.000000) translate(-90.632788, -96.445570) "></path>
            <path d="M147.417823,112.112385 C145.040907,112.112385 143.114036,110.185745 143.114036,107.808912 L143.114036,80.7221677 L152.176484,80.7221677 C163.749039,80.7221677 169.53523,85.8224797 169.53523,96.0232568 C169.53523,100.868261 167.929981,104.760988 164.719436,107.701556 C161.508891,110.642123 157.203907,112.112385 151.804354,112.112385 L147.417823,112.112385 Z M148.301959,85.1439417 L148.301959,107.712501 L152.461053,107.712501 C156.123993,107.712501 158.973309,106.705572 161.009086,104.691685 C163.044864,102.677798 164.062737,99.8321299 164.062737,96.1545966 C164.062737,88.8141233 160.261217,85.1439417 152.658063,85.1439417 L148.301959,85.1439417 Z M187.703834,94.5347388 C187.090911,94.0531571 186.208025,93.8123698 185.055147,93.8123698 C183.552028,93.8123698 182.297016,94.4909521 181.290072,95.848137 C180.283129,97.2053219 179.779664,99.0513576 179.779664,101.386299 L179.779664,112.112385 L174.701191,112.112385 L174.701191,89.6970554 L179.779664,89.6970554 L179.779664,94.3158391 L179.767828,92.9882453 C179.767828,92.9882453 181.663728,91.0965133 181.787389,90.9686841 C181.91105,90.840855 182.028256,90.7359104 182.154726,90.6273792 C183.18356,89.7444793 184.332772,89.303036 185.602397,89.303036 C186.52178,89.303036 187.222252,89.4416711 187.703834,89.7189454 L187.703834,94.5347388 Z M200.837816,112.637744 C197.379183,112.637744 194.617426,111.590684 192.552462,109.496533 C190.487498,107.402382 189.455031,104.626032 189.455031,101.1674 C189.455031,97.402306 190.531277,94.4617828 192.683802,92.3457418 C194.836326,90.2297008 197.736718,89.1716962 201.385065,89.1716962 C204.887478,89.1716962 207.6164,90.2005145 209.571914,92.2581819 C211.527427,94.3158494 212.50517,97.1688136 212.50517,100.81716 C212.50517,104.39254 211.450813,107.256449 209.342069,109.408973 C207.233325,111.561498 204.398602,112.637744 200.837816,112.637744 Z M201.078605,93.2213406 C199.093905,93.2213406 197.525139,93.9145161 196.372262,95.3008877 C195.219384,96.6872594 194.642954,98.5989644 194.642954,101.03606 C194.642954,103.385595 195.226681,105.235279 196.394152,106.585167 C197.561623,107.935055 199.123092,108.609989 201.078605,108.609989 C203.077899,108.609989 204.61383,107.946 205.686444,106.618002 C206.759058,105.290004 207.295357,103.400189 207.295357,100.9485 C207.295357,98.4822177 206.759058,96.5778094 205.686444,95.2352178 C204.61383,93.8926263 203.077899,93.2213406 201.078605,93.2213406 Z M222.749676,122.422561 L217.671203,122.422561 L217.671203,89.6970554 L222.749676,89.6970554 L222.749669,93.2257458 C222.749669,93.2257458 223.752268,92.2463808 224.284497,91.6895084 C225.888762,90.0109606 227.945567,89.1716962 230.454945,89.1716962 C233.300655,89.1716962 235.518817,90.1713281 237.109496,92.170622 C238.700175,94.169916 239.495503,96.8550588 239.495503,100.226131 C239.495503,103.962038 238.598023,106.953637 236.803036,109.201019 C235.00805,111.4484 232.556398,112.572074 229.448006,112.572074 C227.3439,112.572074 224.702582,111.022798 224.201821,110.534639 C223.701061,110.04648 222.749669,109.082422 222.749669,109.082422 L222.749676,122.422561 Z M222.705896,99.9634514 L222.705896,102.743478 C222.705896,104.377937 223.227601,105.764288 224.271028,106.902572 C225.314456,108.040856 226.638786,108.609989 228.244058,108.609989 C230.126605,108.609989 231.604163,107.876683 232.676777,106.410048 C233.749391,104.943412 234.28569,102.89672 234.28569,100.269911 C234.28569,98.0663096 233.785874,96.3406676 232.786227,95.092933 C231.78658,93.8451985 230.433064,93.2213406 228.725637,93.2213406 C226.916057,93.2213406 225.460389,93.86344 224.358588,95.147658 C223.256788,96.431876 222.705896,98.0371244 222.705896,99.9634514 Z M252.14961,100.7296 L252.14961,112.112385 L246.961687,112.112385 L246.961687,80.7221677 L256.483824,80.7221677 C260.088391,80.7221677 262.882982,81.5612749 264.867683,83.2395143 C266.852383,84.9177537 267.844719,87.2818468 267.844719,90.3318646 C267.844719,93.3818823 266.808604,95.8773139 264.736343,97.8182343 C262.664082,99.7591547 259.862194,100.7296 256.330595,100.7296 L252.14961,100.7296 Z M252.14961,85.0126019 L252.14961,96.4829461 L255.520666,96.4829461 C257.753454,96.4829461 259.453558,95.9648887 260.621029,94.9287583 C261.7885,93.8926278 262.372226,92.4333111 262.372226,90.5507643 C262.372226,86.8586375 260.227031,85.0126019 255.936575,85.0126019 L252.14961,85.0126019 Z M288.50885,112.112385 L283.583607,112.112385 L283.583667,109.224859 C283.583667,109.224859 282.485748,110.122405 281.879898,110.691444 C280.498423,111.988982 278.767887,112.637744 276.688267,112.637744 C274.484665,112.637744 272.759023,112.039424 271.511289,110.842766 C270.263554,109.646109 269.639696,108.06275 269.639696,106.092643 C269.639696,101.860561 272.076755,99.3943156 276.950946,98.6938331 L283.605497,97.7525644 C283.605497,94.5566128 282.087808,92.958661 279.052383,92.958661 C276.381794,92.958661 273.973921,93.8780305 271.828693,95.7167972 L271.828693,91.2731333 C274.192822,89.8721682 276.921744,89.1716962 280.015542,89.1716962 C285.677776,89.1716962 288.50885,91.9589911 288.50885,97.5336647 L288.50885,112.112385 Z M283.605497,101.10173 L278.899154,101.758429 C277.439815,101.948143 276.341679,102.302027 275.604713,102.820092 C274.867747,103.338158 274.49927,104.246582 274.49927,105.545394 C274.49927,106.493964 274.838561,107.27105 275.517153,107.876675 C276.195746,108.482301 277.10417,108.785109 278.242455,108.785109 C279.789353,108.785109 281.069904,108.241514 282.084144,107.154306 C283.098385,106.067099 283.605497,104.69899 283.605497,103.049937 L283.605497,101.10173 Z M314.120115,89.6970554 L304.006949,115.70234 C301.905502,120.343037 298.957682,122.66335 295.163401,122.66335 C294.098084,122.66335 291.720641,122.453748 289.367314,121.279527 C289.607738,121.039103 292.492825,118.154016 292.492825,118.154016 C293.295461,118.416697 294.02512,118.548036 294.681822,118.548036 C296.578962,118.548036 297.994499,117.614073 298.928476,115.74612 L300.438884,112.068605 L291.529666,89.6970554 L297.155389,89.6970554 L302.496541,105.983193 C302.554915,106.187501 302.686253,106.727448 302.890561,107.603051 L303.000011,107.603051 C303.072977,107.267403 303.204316,106.742049 303.39403,106.026973 L308.997862,89.6970554 L314.120115,89.6970554 Z" id="DropPay-Text"></path>
        </g>
    </g>
</svg>